<mxfile host="Electron" modified="2024-03-06T20:09:07.718Z" agent="Mozilla/5.0 (Windows NT 10.0; Win64; x64) AppleWebKit/537.36 (KHTML, like Gecko) draw.io/23.1.5 Chrome/120.0.6099.109 Electron/28.1.0 Safari/537.36" etag="Ig6pdkZJIrXwNKHH3LJf" version="23.1.5" type="device">
  <diagram name="Page-1" id="55rN9MvQeOYuZP5Ecxut">
    <mxGraphModel dx="1434" dy="836" grid="0" gridSize="10" guides="1" tooltips="1" connect="1" arrows="1" fold="1" page="1" pageScale="1" pageWidth="1100" pageHeight="850" math="1" shadow="0">
      <root>
        <mxCell id="0" />
        <mxCell id="1" parent="0" />
        <mxCell id="fG104KBYlXSUTW3FtqPG-29" value="" style="endArrow=classic;html=1;exitX=1;exitY=0.5;exitDx=0;exitDy=0;exitPerimeter=0;entryX=0.75;entryY=0;entryDx=0;entryDy=0;curved=1;" parent="1" source="fG104KBYlXSUTW3FtqPG-5" target="fG104KBYlXSUTW3FtqPG-26" edge="1">
          <mxGeometry width="50" height="50" relative="1" as="geometry">
            <mxPoint x="514" y="345" as="sourcePoint" />
            <mxPoint x="564" y="295" as="targetPoint" />
            <Array as="points">
              <mxPoint x="568" y="286" />
              <mxPoint x="603" y="288" />
              <mxPoint x="616" y="299" />
              <mxPoint x="616" y="316" />
            </Array>
          </mxGeometry>
        </mxCell>
        <mxCell id="fG104KBYlXSUTW3FtqPG-1" value="" style="rounded=0;whiteSpace=wrap;html=1;" parent="1" vertex="1">
          <mxGeometry x="623.56" y="247" width="140" height="80" as="geometry" />
        </mxCell>
        <mxCell id="fG104KBYlXSUTW3FtqPG-2" value="\(k_{fct}\)" style="text;html=1;strokeColor=none;fillColor=none;align=center;verticalAlign=middle;whiteSpace=wrap;rounded=0;" parent="1" vertex="1">
          <mxGeometry x="311" y="267" width="34" height="10" as="geometry" />
        </mxCell>
        <mxCell id="fG104KBYlXSUTW3FtqPG-3" value="\(k_{air}\)" style="text;html=1;strokeColor=none;fillColor=none;align=center;verticalAlign=middle;whiteSpace=wrap;rounded=0;" parent="1" vertex="1">
          <mxGeometry x="311" y="298" width="34" height="10" as="geometry" />
        </mxCell>
        <mxCell id="fG104KBYlXSUTW3FtqPG-4" value="\(WRC\)" style="text;html=1;strokeColor=none;fillColor=none;align=center;verticalAlign=middle;whiteSpace=wrap;rounded=0;" parent="1" vertex="1">
          <mxGeometry x="311" y="283" width="34" height="10" as="geometry" />
        </mxCell>
        <mxCell id="fG104KBYlXSUTW3FtqPG-5" value="Numerical Modeling" style="rounded=1;whiteSpace=wrap;html=1;container=0;fixDash=0;collapsible=0;comic=0;points=[[0,0,0,0,0],[0,0.31,0,0,0],[0,0.5,0,0,0],[0,0.69,0,0,0],[0,1,0,0,0],[0.25,0,0,0,0],[0.25,1,0,0,0],[0.5,0,0,0,0],[0.5,1,0,0,0],[0.75,0,0,0,0],[0.75,1,0,0,0],[1,0,0,0,0],[1,0.3,0,0,0],[1,0.5,0,0,0],[1,0.7,0,0,0],[1,1,0,0,0]];" parent="1" vertex="1">
          <mxGeometry x="386.30999999999995" y="258" width="116" height="60" as="geometry" />
        </mxCell>
        <mxCell id="fG104KBYlXSUTW3FtqPG-6" value="Design and&lt;br&gt;Construction" style="rounded=1;whiteSpace=wrap;html=1;container=0;fixDash=0;collapsible=0;comic=0;points=[[0,0,0,0,0],[0,0.31,0,0,0],[0,0.5,0,0,0],[0,0.69,0,0,0],[0,1,0,0,0],[0.25,0,0,0,0],[0.25,1,0,0,0],[0.5,0,0,0,0],[0.5,1,0,0,0],[0.75,0,0,0,0],[0.75,1,0,0,0],[1,0,0,0,0],[1,0.3,0,0,0],[1,0.5,0,0,0],[1,0.7,0,0,0],[1,1,0,0,0]];" parent="1" vertex="1">
          <mxGeometry x="634" y="260" width="120" height="40" as="geometry" />
        </mxCell>
        <mxCell id="fG104KBYlXSUTW3FtqPG-7" value="Monitoring" style="rounded=1;whiteSpace=wrap;html=1;container=0;fixDash=0;collapsible=0;comic=0;points=[[0,0,0,0,0],[0,0.31,0,0,0],[0,0.5,0,0,0],[0,0.69,0,0,0],[0,1,0,0,0],[0.25,0,0,0,0],[0.25,1,0,0,0],[0.5,0,0,0,0],[0.5,1,0,0,0],[0.75,0,0,0,0],[0.75,1,0,0,0],[1,0,0,0,0],[1,0.3,0,0,0],[1,0.5,0,0,0],[1,0.7,0,0,0],[1,1,0,0,0]];" parent="1" vertex="1">
          <mxGeometry x="634" y="300" width="120" height="20" as="geometry" />
        </mxCell>
        <mxCell id="fG104KBYlXSUTW3FtqPG-8" value="\(\theta,\psi\)&lt;br style=&quot;border-color: var(--border-color);&quot;&gt;&lt;span style=&quot;border-color: var(--border-color);&quot;&gt;Actual Model&lt;/span&gt;" style="curved=1;endArrow=classic;html=1;rounded=0;exitX=0.75;exitY=1;exitDx=0;exitDy=0;exitPerimeter=0;dashed=1;labelBackgroundColor=default;" parent="1" source="fG104KBYlXSUTW3FtqPG-5" edge="1">
          <mxGeometry x="0.0363" y="1" width="50" height="50" relative="1" as="geometry">
            <mxPoint x="641" y="297" as="sourcePoint" />
            <mxPoint x="498" y="459" as="targetPoint" />
            <Array as="points">
              <mxPoint x="453" y="448" />
            </Array>
            <mxPoint as="offset" />
          </mxGeometry>
        </mxCell>
        <mxCell id="fG104KBYlXSUTW3FtqPG-9" value="Actual&lt;br&gt;Model&lt;br&gt;\(\theta,\psi\)" style="endArrow=classic;html=1;rounded=0;labelBackgroundColor=none;" parent="1" edge="1">
          <mxGeometry x="0.659" y="20" width="50" height="50" relative="1" as="geometry">
            <mxPoint x="537" y="534" as="sourcePoint" />
            <mxPoint x="537" y="454" as="targetPoint" />
            <mxPoint as="offset" />
          </mxGeometry>
        </mxCell>
        <mxCell id="fG104KBYlXSUTW3FtqPG-10" value="Field&lt;br&gt;\(\theta,\psi\)" style="endArrow=classic;html=1;rounded=0;labelBackgroundColor=none;" parent="1" edge="1">
          <mxGeometry x="0.689" y="19" width="50" height="50" relative="1" as="geometry">
            <mxPoint x="537" y="534" as="sourcePoint" />
            <mxPoint x="617" y="534" as="targetPoint" />
            <mxPoint as="offset" />
          </mxGeometry>
        </mxCell>
        <mxCell id="fG104KBYlXSUTW3FtqPG-11" value="" style="endArrow=classic;html=1;rounded=0;entryX=0;entryY=0.31;entryDx=0;entryDy=0;entryPerimeter=0;" parent="1" edge="1">
          <mxGeometry width="50" height="50" relative="1" as="geometry">
            <mxPoint x="347" y="274.4" as="sourcePoint" />
            <mxPoint x="386.30999999999995" y="273.9999999999999" as="targetPoint" />
          </mxGeometry>
        </mxCell>
        <mxCell id="fG104KBYlXSUTW3FtqPG-12" value="" style="endArrow=classic;html=1;exitX=0.5;exitY=1;exitDx=0;exitDy=0;exitPerimeter=0;dashed=1;curved=1;" parent="1" source="fG104KBYlXSUTW3FtqPG-7" edge="1">
          <mxGeometry width="50" height="50" relative="1" as="geometry">
            <mxPoint x="361" y="608" as="sourcePoint" />
            <mxPoint x="624" y="507" as="targetPoint" />
            <Array as="points">
              <mxPoint x="698" y="438" />
            </Array>
          </mxGeometry>
        </mxCell>
        <mxCell id="fG104KBYlXSUTW3FtqPG-13" value="\(\theta,\psi\)&lt;br style=&quot;border-color: var(--border-color);&quot;&gt;&lt;span style=&quot;&quot;&gt;Field&lt;/span&gt;" style="edgeLabel;html=1;align=center;verticalAlign=middle;resizable=0;points=[];labelBackgroundColor=default;" parent="fG104KBYlXSUTW3FtqPG-12" vertex="1" connectable="0">
          <mxGeometry x="-0.2506" y="1" relative="1" as="geometry">
            <mxPoint x="-15" y="19" as="offset" />
          </mxGeometry>
        </mxCell>
        <mxCell id="fG104KBYlXSUTW3FtqPG-14" value="" style="endArrow=classic;html=1;rounded=0;exitX=1;exitY=0.5;exitDx=0;exitDy=0;exitPerimeter=0;" parent="1" source="fG104KBYlXSUTW3FtqPG-5" edge="1">
          <mxGeometry width="50" height="50" relative="1" as="geometry">
            <mxPoint x="421" y="448" as="sourcePoint" />
            <mxPoint x="623.56" y="287" as="targetPoint" />
          </mxGeometry>
        </mxCell>
        <mxCell id="fG104KBYlXSUTW3FtqPG-15" value="Predictive&lt;br&gt;Model" style="edgeLabel;html=1;align=center;verticalAlign=middle;resizable=0;points=[];" parent="fG104KBYlXSUTW3FtqPG-14" vertex="1" connectable="0">
          <mxGeometry x="-0.2255" y="-1" relative="1" as="geometry">
            <mxPoint x="12" y="-1" as="offset" />
          </mxGeometry>
        </mxCell>
        <mxCell id="fG104KBYlXSUTW3FtqPG-16" value="Field&lt;br style=&quot;border-color: var(--border-color); font-size: 12px;&quot;&gt;&lt;span style=&quot;border-color: var(--border-color); font-size: 12px;&quot;&gt;Climate Data&lt;/span&gt;" style="curved=1;endArrow=classic;html=1;rounded=0;exitX=1;exitY=0.5;exitDx=0;exitDy=0;exitPerimeter=0;entryX=0.75;entryY=0;entryDx=0;entryDy=0;entryPerimeter=0;dashed=1;labelBackgroundColor=default;" parent="1" source="fG104KBYlXSUTW3FtqPG-7" target="fG104KBYlXSUTW3FtqPG-5" edge="1">
          <mxGeometry x="0.2123" width="50" height="50" relative="1" as="geometry">
            <mxPoint x="171" y="468" as="sourcePoint" />
            <mxPoint x="221" y="418" as="targetPoint" />
            <Array as="points">
              <mxPoint x="782" y="309" />
              <mxPoint x="773.56" y="217" />
              <mxPoint x="473.55999999999995" y="217" />
            </Array>
            <mxPoint as="offset" />
          </mxGeometry>
        </mxCell>
        <mxCell id="fG104KBYlXSUTW3FtqPG-17" value="Historical&amp;nbsp;&lt;br&gt;&lt;span style=&quot;border-color: var(--border-color); background-color: initial;&quot;&gt;Climate Data&lt;/span&gt;" style="text;html=1;strokeColor=none;fillColor=none;align=center;verticalAlign=middle;whiteSpace=wrap;rounded=0;" parent="1" vertex="1">
          <mxGeometry x="320.30999999999995" y="215" width="66" height="30" as="geometry" />
        </mxCell>
        <mxCell id="fG104KBYlXSUTW3FtqPG-18" value="" style="curved=1;endArrow=classic;html=1;rounded=0;entryX=0.25;entryY=0;entryDx=0;entryDy=0;entryPerimeter=0;exitX=1;exitY=0.5;exitDx=0;exitDy=0;" parent="1" source="fG104KBYlXSUTW3FtqPG-17" target="fG104KBYlXSUTW3FtqPG-5" edge="1">
          <mxGeometry width="50" height="50" relative="1" as="geometry">
            <mxPoint x="407" y="174" as="sourcePoint" />
            <mxPoint x="446.30999999999995" y="201" as="targetPoint" />
            <Array as="points">
              <mxPoint x="415" y="228" />
            </Array>
          </mxGeometry>
        </mxCell>
        <mxCell id="fG104KBYlXSUTW3FtqPG-19" value="" style="endArrow=classic;html=1;rounded=0;fontStyle=0;strokeWidth=0.5;" parent="1" edge="1">
          <mxGeometry width="50" height="50" relative="1" as="geometry">
            <mxPoint x="641" y="507" as="sourcePoint" />
            <mxPoint x="672" y="507" as="targetPoint" />
          </mxGeometry>
        </mxCell>
        <mxCell id="fG104KBYlXSUTW3FtqPG-20" value="" style="endArrow=classic;html=1;rounded=0;dashed=1;fontStyle=0" parent="1" edge="1">
          <mxGeometry width="50" height="50" relative="1" as="geometry">
            <mxPoint x="641" y="527" as="sourcePoint" />
            <mxPoint x="672" y="527" as="targetPoint" />
          </mxGeometry>
        </mxCell>
        <mxCell id="fG104KBYlXSUTW3FtqPG-21" value="&lt;font style=&quot;font-size: 7px;&quot;&gt;Lab Data and Design&lt;/font&gt;" style="text;html=1;strokeColor=none;fillColor=none;align=left;verticalAlign=middle;whiteSpace=wrap;rounded=0;fontStyle=0" parent="1" vertex="1">
          <mxGeometry x="672" y="497" width="109" height="20" as="geometry" />
        </mxCell>
        <mxCell id="fG104KBYlXSUTW3FtqPG-22" value="&lt;font style=&quot;font-size: 7px;&quot;&gt;Field Data and Validation&lt;/font&gt;" style="text;html=1;strokeColor=none;fillColor=none;align=left;verticalAlign=middle;whiteSpace=wrap;rounded=0;fontStyle=0;fontSize=9;" parent="1" vertex="1">
          <mxGeometry x="672" y="517" width="109" height="20" as="geometry" />
        </mxCell>
        <mxCell id="fG104KBYlXSUTW3FtqPG-23" value="" style="endArrow=classic;html=1;rounded=0;entryX=0;entryY=0.31;entryDx=0;entryDy=0;entryPerimeter=0;" parent="1" edge="1">
          <mxGeometry width="50" height="50" relative="1" as="geometry">
            <mxPoint x="347.30999999999995" y="287.89" as="sourcePoint" />
            <mxPoint x="386.30999999999995" y="287.89" as="targetPoint" />
          </mxGeometry>
        </mxCell>
        <mxCell id="fG104KBYlXSUTW3FtqPG-24" value="" style="endArrow=classic;html=1;rounded=0;entryX=0;entryY=0.31;entryDx=0;entryDy=0;entryPerimeter=0;" parent="1" edge="1">
          <mxGeometry width="50" height="50" relative="1" as="geometry">
            <mxPoint x="347.30999999999995" y="303" as="sourcePoint" />
            <mxPoint x="386.30999999999995" y="303" as="targetPoint" />
          </mxGeometry>
        </mxCell>
        <mxCell id="fG104KBYlXSUTW3FtqPG-25" value="Experimental Plan" style="text;html=1;strokeColor=none;fillColor=default;align=center;verticalAlign=middle;whiteSpace=wrap;rounded=0;" parent="1" vertex="1">
          <mxGeometry x="626.56" y="242" width="100" height="10" as="geometry" />
        </mxCell>
        <mxCell id="fG104KBYlXSUTW3FtqPG-26" value="&lt;font style=&quot;font-size: 10px;&quot;&gt;\(LUGM_{actual}\Leftrightarrow&lt;br&gt;LUGM_{predicted}\)&lt;br&gt;&amp;nbsp;&amp;nbsp;&lt;/font&gt;" style="rounded=0;whiteSpace=wrap;html=1;strokeColor=none;" parent="1" vertex="1">
          <mxGeometry x="534" y="364" width="92.56" height="43" as="geometry" />
        </mxCell>
        <mxCell id="fG104KBYlXSUTW3FtqPG-31" value="" style="curved=1;endArrow=classic;html=1;rounded=0;exitX=0.75;exitY=1;exitDx=0;exitDy=0;exitPerimeter=0;entryX=0;entryY=0;entryDx=0;entryDy=0;dashed=1;" parent="1" source="fG104KBYlXSUTW3FtqPG-5" target="fG104KBYlXSUTW3FtqPG-26" edge="1">
          <mxGeometry width="50" height="50" relative="1" as="geometry">
            <mxPoint x="512" y="361" as="sourcePoint" />
            <mxPoint x="562" y="311" as="targetPoint" />
            <Array as="points">
              <mxPoint x="469" y="350" />
              <mxPoint x="517" y="348" />
            </Array>
          </mxGeometry>
        </mxCell>
      </root>
    </mxGraphModel>
  </diagram>
</mxfile>
